<svg width="168" height="104" viewBox="0 0 168 104" fill="none" xmlns="http://www.w3.org/2000/svg">
<path d="M83.82 81.2939C81.8219 79.7805 79.3679 79.2804 77.0788 79.7072C76.7191 77.5382 75.5645 75.6203 73.8049 74.2876C71.9816 72.9067 69.7305 72.3189 67.4647 72.6315C66.9034 72.7091 66.3581 72.84 65.8338 73.0203C65.337 71.3168 64.3102 69.7523 62.79 68.6009C60.2859 66.7043 57.0667 66.4008 54.3528 67.5169C53.8124 65.8906 52.7975 64.4649 51.4019 63.4078C49.5789 62.0269 47.3265 61.4395 45.0616 61.7517C43.2246 62.0053 41.5574 62.8268 40.256 64.1003L31.2713 63.503L36.7783 18.768L46.6461 19.4386C46.702 19.4422 46.7577 19.4442 46.813 19.4442C47.7287 19.4442 48.5748 18.9323 48.9967 18.1088L52.6947 10.8931C53.6317 9.06645 55.747 8.13793 57.7248 8.68549L63.2168 10.2041C64.5223 10.5645 65.8754 9.79893 66.237 8.49238C66.5983 7.18584 65.8318 5.83348 64.5253 5.47215L59.0343 3.95385C54.8254 2.78869 50.3219 4.76422 48.327 8.65276L45.366 14.4304L37.3795 13.8878L37.5687 12.3508C38.1735 7.43851 34.6692 2.95038 29.7569 2.34554L10.8434 0.0185077C9.49566 -0.146447 8.2729 0.809569 8.10729 2.15473C7.94168 3.50022 8.89835 4.72527 10.2435 4.89088L29.157 7.21922C30.2351 7.35178 31.197 7.89639 31.8653 8.75258C32.5336 9.60877 32.8288 10.6741 32.696 11.7522L26.2012 64.5114C25.9273 66.7367 23.8935 68.323 21.6682 68.0507L2.75478 65.7224C1.40766 65.5581 0.184243 66.5131 0.0186345 67.8586C-0.146974 69.2041 0.809695 70.4291 2.15486 70.5948L21.0683 72.9231C21.4388 72.9686 21.807 72.9908 22.1713 72.9908C25.4867 72.9908 28.4778 71.1489 30.0276 68.341L36.7491 68.7878C35.9456 70.3431 35.6377 72.1036 35.8818 73.8732C36.1947 76.1384 37.371 78.1467 39.194 79.5272C40.6972 80.6658 42.4914 81.2651 44.3452 81.2651C44.7396 81.2651 45.1366 81.2379 45.5343 81.1833C45.5598 81.1796 45.5847 81.1747 45.6099 81.1708C45.6131 81.1963 45.6151 81.2215 45.6184 81.2471C45.9313 83.5123 47.1075 85.5205 48.9305 86.901C50.4737 88.0694 52.2882 88.634 54.0893 88.634C54.5115 88.634 54.9327 88.5996 55.3497 88.5381C55.6325 90.7401 56.762 92.8318 58.6674 94.2749C60.2106 95.4436 62.0251 96.0079 63.8262 96.0079C64.2471 96.0079 64.667 95.9738 65.0827 95.9126C65.0863 95.9398 65.0882 95.9673 65.0918 95.9944C65.4047 98.2596 66.581 100.268 68.4043 101.648C69.9076 102.787 71.7018 103.386 73.5552 103.386C73.9499 103.386 74.3469 103.359 74.7443 103.304C77.0098 102.992 79.0177 101.815 80.3982 99.9923L85.4758 93.2878C88.3265 89.5246 87.5835 84.1439 83.82 81.2939ZM44.863 76.3204C43.8971 76.4539 42.9362 76.2029 42.1586 75.6138C41.3809 75.025 40.8792 74.1681 40.7457 73.2019C40.6121 72.2355 40.8632 71.2752 41.4523 70.4972L43.3221 68.0281C43.9109 67.2505 44.7677 66.7488 45.7339 66.6152C46.7004 66.4827 47.6607 66.7327 48.4386 67.3219C49.2163 67.9107 49.718 68.7675 49.8515 69.7337C49.9851 70.6998 49.734 71.6601 49.1453 72.438L47.2751 74.9071C46.686 75.6848 45.8295 76.1868 44.863 76.3204ZM51.8951 82.9876C51.1175 82.3988 50.6158 81.542 50.4822 80.5758C50.3487 79.6093 50.5997 78.649 51.1889 77.8711L53.0587 75.4023C53.0587 75.4023 53.059 75.402 53.059 75.4017L54.7102 73.2213C55.4276 72.2741 56.5204 71.7756 57.626 71.7756C58.3941 71.7756 59.1682 72.0165 59.8264 72.515C61.4317 73.7308 61.7489 76.0258 60.533 77.6315L57.0117 82.2813C55.7958 83.8867 53.5005 84.2035 51.8951 82.9876ZM61.632 90.3615C60.8544 89.7727 60.3527 88.9158 60.2191 87.9493C60.0856 86.9835 60.3363 86.0232 60.9248 85.2459C60.9251 85.2456 60.9251 85.2452 60.9254 85.2449L64.4467 80.5948L65.7245 78.9076C66.3133 78.13 67.1701 77.6282 68.1366 77.4947C69.1034 77.3618 70.0634 77.6122 70.8413 78.2013C72.446 79.4165 72.7632 81.7105 71.5489 83.3159L66.7486 89.6545C66.7482 89.6548 66.7479 89.6552 66.7479 89.6555C65.5317 91.2602 63.2377 91.5773 61.632 90.3615ZM81.5627 90.3241L76.4851 97.0287C75.8963 97.8063 75.0395 98.3081 74.0733 98.4416C73.1062 98.5748 72.1462 98.3241 71.3686 97.7353C70.591 97.1465 70.0892 96.2897 69.9557 95.3235C69.8222 94.357 70.0732 93.3967 70.6623 92.6188L75.4617 86.2818C75.4627 86.2808 75.4633 86.2795 75.4643 86.2785L75.7402 85.9142C76.329 85.1366 77.1859 84.6348 78.1524 84.5013C79.1188 84.3688 80.0791 84.6188 80.8571 85.2079C82.4614 86.4232 82.7786 88.7188 81.5627 90.3241Z" fill="#9B7B55"/>
<path d="M167.555 67.8585C167.39 66.5133 166.166 65.5579 164.819 65.7222L145.906 68.0506C143.677 68.3245 141.647 66.7365 141.373 64.5113L141.179 62.9367L141.134 62.5721L134.879 11.7521C134.746 10.674 135.041 9.60897 135.709 8.75245C136.378 7.89626 137.339 7.35165 138.418 7.2191L157.331 4.89075C158.676 4.72514 159.633 3.5001 159.467 2.15461C159.302 0.809442 158.078 -0.145919 156.731 0.0183812L137.818 2.34672C133.195 2.91588 129.821 6.92355 129.942 11.4876L125.173 12.0748L110.403 3.76324C108.312 2.58499 105.941 2.079 103.547 2.29894C103.542 2.29927 103.537 2.30058 103.532 2.3009L99.0867 2.71198C97.7367 2.83668 96.7436 4.03227 96.8687 5.38234C96.9934 6.73209 98.187 7.72345 99.539 7.60039L103.997 7.188C105.392 7.05905 106.774 7.35427 107.995 8.04092L123.308 16.6585C123.787 16.9746 124.37 17.1193 124.96 17.047L130.499 16.3652L134.563 49.3702L135.968 60.7841L127.132 60.7913C126.543 60.7916 125.974 61.004 125.529 61.3886L124.845 61.9208L102.662 42.8018C107.732 41.3444 112.564 37.8191 117.082 32.2706C117.938 31.2193 117.78 29.6732 116.729 28.817C115.678 27.9611 114.131 28.1192 113.275 29.1705C108.225 35.3726 102.915 38.565 97.4928 38.6586C89.593 38.8072 83.7885 32.2568 83.7352 32.1956C83.2524 31.6372 82.5448 31.3283 81.8071 31.3463C81.0694 31.3672 80.3804 31.7194 79.9307 32.3043L73.3368 40.8858C69.8626 45.4077 63.9442 47.0926 58.6091 45.0771L57.9051 44.811C57.2868 44.5773 57.0348 44.0942 56.9399 43.8269C56.845 43.5595 56.735 43.0256 57.0669 42.4542L74.2771 12.8321C75.3902 10.9162 77.3723 9.65054 79.5789 9.44631L89.7684 8.50404C91.1185 8.37901 92.1115 7.18342 91.9865 5.83368C91.8615 4.48393 90.6659 3.49126 89.3161 3.61563L79.1266 4.5579C75.3415 4.9081 71.9416 7.07934 70.0318 10.366L52.8216 39.9881C51.8528 41.6559 51.6676 43.6547 52.314 45.4721C52.9604 47.2896 54.3661 48.7225 56.1701 49.4039L56.8741 49.67C58.9504 50.4542 61.0899 50.8328 63.201 50.8328C68.5859 50.8325 73.78 48.3667 77.2296 43.8773L82.1491 37.4748C84.7854 39.7468 89.7036 43.112 95.9817 43.5254L128.038 71.154C128.615 71.6505 128.963 72.3417 129.019 73.1003C129.076 73.859 128.833 74.5944 128.338 75.1701L127.088 76.6191C125.519 78.4368 122.76 78.6388 120.939 77.0701C120.837 76.9823 120.729 76.9071 120.618 76.839L112.296 69.6635C111.27 68.7785 109.72 68.893 108.834 69.9197C107.949 70.9465 108.064 72.4965 109.091 73.3818L115.853 79.2128L112.768 82.7927C111.821 83.8921 110.394 84.4475 108.955 84.2783C108.093 84.1768 107.286 83.8204 106.622 83.2473C106.61 83.2372 106.597 83.2287 106.585 83.2189L98.853 76.552C97.8263 75.667 96.2766 75.7815 95.391 76.8082C94.5056 77.8349 94.6205 79.385 95.6472 80.2703L101.556 85.3652L98.4531 88.969C97.5049 90.0687 96.0753 90.6241 94.6352 90.4546C93.2884 90.2955 92.069 91.2597 91.9109 92.6059C91.7528 93.9524 92.7157 95.1722 94.0622 95.3302C94.4258 95.3728 94.7884 95.3941 95.1497 95.3941C97.8302 95.3941 100.396 94.2332 102.172 92.1735L105.49 88.321C106.396 88.753 107.37 89.0355 108.381 89.1543C111.445 89.5143 114.473 88.3344 116.487 85.9982L119.81 82.1417C123.485 83.8849 128.024 83.0487 130.806 79.8258L132.057 78.375C133.409 76.805 134.069 74.8023 133.916 72.7361C133.762 70.6696 132.813 68.7867 131.244 67.4353L129.229 65.699L136.593 65.6928C137.398 69.9345 141.131 72.991 145.402 72.991C145.766 72.991 146.135 72.9688 146.505 72.9233L165.419 70.5949C166.764 70.429 167.721 69.2043 167.555 67.8585Z" fill="#9B7B55"/>
<path d="M151.864 50.1382C147.894 50.1382 144.664 53.3679 144.664 57.338C144.664 61.308 147.894 64.538 151.864 64.538C155.834 64.538 159.064 61.308 159.064 57.338C159.064 53.3679 155.834 50.1382 151.864 50.1382ZM151.864 59.6287C150.601 59.6287 149.573 58.601 149.573 57.338C149.573 56.0749 150.601 55.0476 151.864 55.0476C153.127 55.0476 154.154 56.0749 154.154 57.338C154.154 58.601 153.127 59.6287 151.864 59.6287Z" fill="#9B7B55"/>
<path d="M22.6453 57.338C22.6453 53.3679 19.4156 50.1382 15.4456 50.1382C11.4755 50.1382 8.24582 53.3679 8.24582 57.338C8.24582 61.308 11.4755 64.538 15.4456 64.538C19.4156 64.538 22.6453 61.308 22.6453 57.338ZM13.1552 57.338C13.1552 56.0749 14.1826 55.0476 15.4456 55.0476C16.7086 55.0476 17.736 56.0749 17.736 57.338C17.736 58.601 16.7086 59.6287 15.4456 59.6287C14.1826 59.6287 13.1552 58.601 13.1552 57.338Z" fill="#9B7B55"/>
</svg>
