<svg width="134" height="131" viewBox="0 0 134 131" fill="none" xmlns="http://www.w3.org/2000/svg">
<path d="M84.8796 33.2184C88.462 33.2184 91.3764 30.2735 91.3764 26.6538C91.3764 23.034 88.462 20.0889 84.8796 20.0889C81.2973 20.0889 78.3829 23.034 78.3829 26.6538C78.3829 28.1321 78.8694 29.4976 79.6887 30.5962L69.0143 45.6689C68.3774 45.4576 67.6978 45.3415 66.9915 45.3415C65.2844 45.3415 63.7298 46.0113 62.5693 47.1032L55.4543 43.0236C55.5491 42.5783 55.6001 42.1167 55.6001 41.6432C55.6001 38.0235 52.6856 35.0786 49.1033 35.0786C45.521 35.0786 42.6066 38.0235 42.6066 41.6432C42.6066 42.1167 42.6575 42.5783 42.7523 43.0236L35.6374 47.1032C34.4768 46.0113 32.9222 45.3418 31.2151 45.3418C27.6328 45.3418 24.7184 48.2869 24.7184 51.9067C24.7184 55.5264 27.6328 58.4716 31.2151 58.4716C34.7975 58.4716 37.7119 55.5264 37.7119 51.9067C37.7119 51.4332 37.661 50.9716 37.5661 50.5263L44.6811 46.4467C45.8417 47.5385 47.3962 48.2084 49.1033 48.2084C50.8104 48.2084 52.3647 47.5385 53.5255 46.447L60.6405 50.5265C60.5457 50.9719 60.4947 51.4335 60.4947 51.9069C60.4947 55.5267 63.4092 58.4718 66.9915 58.4718C70.5741 58.4718 73.4885 55.5267 73.4885 51.9069C73.4885 50.4283 73.0018 49.0626 72.1824 47.9639L82.8568 32.8912C83.4935 33.1024 84.1733 33.2184 84.8796 33.2184ZM84.8796 24.0277C86.3126 24.0277 87.4783 25.2056 87.4783 26.6538C87.4783 28.1017 86.3126 29.2796 84.8796 29.2796C83.4467 29.2796 82.2809 28.1017 82.2809 26.6538C82.2807 25.2056 83.4465 24.0277 84.8796 24.0277ZM31.2144 54.5323C29.7814 54.5323 28.6157 53.3543 28.6157 51.9061C28.6157 50.458 29.7814 49.28 31.2144 49.28C32.6473 49.28 33.8131 50.458 33.8131 51.9061C33.8131 53.3543 32.6473 54.5323 31.2144 54.5323ZM49.1028 44.2691C47.6699 44.2691 46.5041 43.0911 46.5041 41.643C46.5041 40.1951 47.6699 39.0171 49.1028 39.0171C50.5357 39.0171 51.7015 40.1951 51.7015 41.643C51.7018 43.0911 50.5357 44.2691 49.1028 44.2691ZM66.9912 54.5323C65.5583 54.5323 64.3925 53.3543 64.3925 51.9061C64.3925 50.458 65.5583 49.28 66.9912 49.28C68.4244 49.28 69.5902 50.458 69.5902 51.9061C69.5902 53.3543 68.4241 54.5323 66.9912 54.5323Z" fill="#9B7B55"/>
<path d="M108.833 97.2637H95.1931H20.9009H5.51315C4.62257 97.2637 3.89805 96.5316 3.89805 95.6317V14.3828C3.89805 13.4829 4.62257 12.7508 5.51315 12.7508H14.7011C15.7775 12.7508 16.6502 11.8693 16.6502 10.7814C16.6502 9.69351 15.7775 8.81201 14.7011 8.81201H5.51315C2.47319 8.81201 0 11.311 0 14.3828V95.6317C0 98.7035 2.47319 101.202 5.51315 101.202H18.9518V105.537C18.9518 108.006 20.9398 110.015 23.3834 110.015H42.8929L33.7091 128.132C33.2184 129.101 33.5971 130.287 34.5552 130.783C34.8395 130.931 35.143 131 35.4422 131C36.1503 131 36.8335 130.609 37.1783 129.928L47.2725 110.015H68.8215L78.9156 129.928C79.2607 130.609 79.9436 131 80.6518 131C80.9509 131 81.2544 130.93 81.5387 130.783C82.4969 130.287 82.8758 129.101 82.3849 128.132L73.2011 110.015H92.7106C95.1541 110.015 97.1421 108.006 97.1421 105.537V101.202H108.833C109.909 101.202 110.782 100.321 110.782 99.2331C110.782 98.1452 109.909 97.2637 108.833 97.2637ZM93.2441 105.537C93.2441 105.834 93.0047 106.076 92.7106 106.076H23.3834C23.0892 106.076 22.8499 105.834 22.8499 105.537V101.202H93.2441V105.537Z" fill="#9B7B55"/>
<path d="M22.4972 12.7506H49.1787H66.9151H110.581C111.471 12.7506 112.196 13.4827 112.196 14.3826V33.1078C112.196 34.1957 113.068 35.0772 114.145 35.0772C115.221 35.0772 116.094 34.1957 116.094 33.1078V14.3826C116.094 11.3109 113.621 8.81184 110.581 8.81184H68.8644V4.94081C68.8644 2.21648 66.6708 0 63.9744 0H52.1196C49.4235 0 47.2296 2.21648 47.2296 4.94081V8.81184H22.4972C21.4209 8.81184 20.5482 9.69334 20.5482 10.7812C20.5482 11.8691 21.4209 12.7506 22.4972 12.7506ZM51.1277 4.94081C51.1277 4.38833 51.5726 3.93878 52.1196 3.93878H63.9744C64.5212 3.93878 64.9663 4.38833 64.9663 4.94081V8.81184H51.128V4.94081H51.1277Z" fill="#9B7B55"/>
<path d="M27.2608 68.5396C26.1844 68.5396 25.3118 69.421 25.3118 70.5089V87.911C25.3118 88.9989 26.1844 89.8804 27.2608 89.8804H35.1679C36.2442 89.8804 37.1169 88.9989 37.1169 87.911V70.5089C37.1169 69.421 36.2442 68.5396 35.1679 68.5396H27.2608ZM33.2188 85.9418H29.2098V72.4786H33.2188V85.9418Z" fill="#9B7B55"/>
<path d="M45.1491 58.4751C44.0727 58.4751 43.2001 59.3566 43.2001 60.4445V87.9115C43.2001 88.9994 44.0727 89.8809 45.1491 89.8809H53.0562C54.1326 89.8809 55.0052 88.9994 55.0052 87.9115V60.4445C55.0052 59.3566 54.1326 58.4751 53.0562 58.4751H45.1491ZM51.1074 85.942H47.0984V62.4139H51.1074V85.942Z" fill="#9B7B55"/>
<path d="M63.0374 68.5396C61.961 68.5396 61.0884 69.421 61.0884 70.5089V87.911C61.0884 88.9989 61.961 89.8804 63.0374 89.8804H70.9445C72.0209 89.8804 72.8936 88.9989 72.8936 87.911V70.5089C72.8936 69.421 72.0209 68.5396 70.9445 68.5396H63.0374ZM68.9955 85.9418H64.9864V72.4786H68.9955V85.9418Z" fill="#9B7B55"/>
<path d="M80.9261 80.1602C79.8497 80.1602 78.9771 81.0417 78.9771 82.1296V87.9111C78.9771 88.999 79.8497 89.8805 80.9261 89.8805H88.8331C89.9095 89.8805 90.7822 88.999 90.7822 87.9111C90.7822 86.8231 89.9095 85.9416 88.8331 85.9416H82.8751V82.1296C82.8751 81.0417 82.0025 80.1602 80.9261 80.1602Z" fill="#9B7B55"/>
<path d="M132.06 99.1159L120.878 79.5464C123.711 76.4954 125.774 72.7675 126.876 68.6123C128.637 61.9713 127.733 55.0346 124.331 49.0802C117.308 36.7877 101.697 32.562 89.5324 39.6583C77.3676 46.7547 73.185 62.5285 80.2082 74.8204C83.6105 80.7748 89.1039 85.0339 95.6763 86.8137C97.8711 87.408 100.098 87.7018 102.311 87.7018C104.245 87.7018 106.167 87.477 108.048 87.0322L119.227 106.602C120.597 109.001 123.093 110.344 125.655 110.344C126.911 110.344 128.184 110.021 129.348 109.343C131.634 108.009 133.054 105.523 133.054 102.855C133.054 101.548 132.71 100.255 132.06 99.1159ZM96.6851 83.0091C91.1184 81.5019 86.4654 77.8942 83.5837 72.851C77.6353 62.44 81.1781 49.0802 91.4812 43.0693C94.8707 41.0921 98.5746 40.153 102.233 40.153C109.695 40.153 116.963 44.0637 120.955 51.0496C123.836 56.0928 124.602 61.9679 123.11 67.593C121.619 73.2181 118.048 77.9192 113.057 80.831C108.066 83.7428 102.252 84.5158 96.6851 83.0091ZM127.399 105.931C125.723 106.909 123.571 106.327 122.603 104.633L111.848 85.8049C112.926 85.3603 113.981 84.8404 115.007 84.2422C116.033 83.6435 117.005 82.9771 117.925 82.2555L128.684 101.085C128.992 101.626 129.156 102.238 129.156 102.855C129.156 104.12 128.483 105.299 127.399 105.931Z" fill="#9B7B55"/>
<path d="M119.941 67.4985C121.317 63.0199 120.989 58.2251 119.018 53.9974C118.559 53.0133 117.398 52.5915 116.425 53.055C115.451 53.5187 115.033 54.692 115.492 55.6759C117.047 59.0107 117.305 62.7943 116.218 66.3303C115.126 69.8857 112.766 72.8694 109.573 74.7322C106.194 76.7037 102.257 77.2268 98.4888 76.2066C94.7202 75.1862 91.57 72.7439 89.6194 69.3298C85.5922 62.2817 87.9908 53.2372 94.966 49.1679C100.066 46.1931 106.395 46.5907 111.091 50.1807C111.95 50.8372 113.172 50.6663 113.821 49.7987C114.471 48.9314 114.302 47.6962 113.443 47.04C107.494 42.4917 99.4763 41.9883 93.0167 45.7567C88.7361 48.2539 85.6741 52.2862 84.3947 57.1104C83.1154 61.9346 83.7721 66.9736 86.2434 71.2989C88.7148 75.6245 92.7054 78.7183 97.4797 80.0112C99.074 80.4429 100.692 80.6564 102.299 80.6564C105.506 80.6564 108.671 79.8067 111.522 78.1432C115.567 75.7836 118.557 72.0034 119.941 67.4985Z" fill="#9B7B55"/>
</svg>
