<svg width="136" height="157" viewBox="0 0 136 157" fill="none" xmlns="http://www.w3.org/2000/svg">
<path d="M25.2911 124.269H21.6742H18.6176H15.0003C6.72928 124.269 0 131.258 0 139.849V153.742C0 155.004 0.984922 156.027 2.20045 156.027C3.41598 156.027 4.4009 155.004 4.4009 153.742V139.849C4.4009 133.779 9.15564 128.84 15.0003 128.84H15.6766L12.2818 140.825C12.057 141.618 12.2624 142.476 12.8184 143.067L18.5715 149.187C18.9855 149.628 19.5532 149.876 20.1459 149.876C20.7385 149.876 21.3062 149.628 21.7202 149.187L27.4734 143.067C28.0297 142.476 28.2347 141.618 28.01 140.825L24.6151 128.84H25.2911C31.1358 128.84 35.8908 133.779 35.8908 139.849V153.742C35.8908 155.004 36.8758 156.027 38.0913 156.027C39.3068 156.027 40.2917 155.004 40.2917 153.742V139.849C40.2917 131.258 33.5625 124.269 25.2911 124.269ZM20.1459 144.319L16.8672 140.831L20.1459 129.256L23.4245 140.831L20.1459 144.319Z" fill="#9B7B55"/>
<path d="M20.1458 123.066C29.4162 123.066 36.9579 115.232 36.9579 105.603V101.151V98.2861C36.9579 97.975 36.9494 97.6657 36.9338 97.3585C36.9303 97.2887 36.923 97.2196 36.9186 97.1501C36.9036 96.9102 36.8869 96.671 36.8625 96.4339C36.8549 96.3611 36.844 96.2889 36.8358 96.2164C36.8091 95.9823 36.7801 95.7489 36.7446 95.5179C36.7334 95.446 36.7197 95.375 36.7076 95.303C36.6692 95.073 36.6284 94.8435 36.5815 94.6165C36.5659 94.5418 36.5483 94.4681 36.5319 94.3937C36.4832 94.1722 36.4318 93.9518 36.3749 93.7336C36.3541 93.6532 36.3312 93.5733 36.3092 93.4935C36.2517 93.2851 36.1918 93.0781 36.1273 92.8727C36.0994 92.7838 36.0698 92.6951 36.0404 92.6067C35.9768 92.415 35.9105 92.2249 35.8406 92.0365C35.8037 91.9369 35.7658 91.8375 35.7274 91.7388C35.6602 91.5672 35.5907 91.3975 35.5185 91.2287C35.4707 91.1165 35.4226 91.0047 35.3724 90.8938C35.3052 90.745 35.2351 90.5982 35.1641 90.4519C35.103 90.3257 35.042 90.1996 34.9781 90.0749C34.915 89.9527 34.849 89.8327 34.7835 89.7123C34.7058 89.5694 34.6289 89.4264 34.5474 89.2859C34.4975 89.2 34.4444 89.1162 34.393 89.0315C33.8843 88.188 33.3054 87.3877 32.6591 86.6396C32.6291 86.6048 32.6001 86.5689 32.5699 86.5344C32.4335 86.379 32.2923 86.2279 32.15 86.0773C32.0917 86.0152 32.0339 85.9524 31.9743 85.8914C31.8443 85.7577 31.7108 85.6269 31.5762 85.4971C31.4981 85.4218 31.4201 85.3469 31.3409 85.2734C31.2781 85.2152 31.2185 85.154 31.1548 85.0967C31.1323 85.0747 31.1091 85.0531 31.0853 85.0321C31.0102 84.9653 30.9322 84.9026 30.8562 84.837C30.8383 84.8218 30.8204 84.8066 30.8025 84.7913C30.6229 84.6384 30.4407 84.4893 30.2556 84.3446C30.216 84.3135 30.1761 84.2827 30.1362 84.2519C29.9739 84.1273 29.8099 84.0063 29.6442 83.8881C29.5808 83.843 29.5177 83.7979 29.4537 83.7534C29.3129 83.6562 29.1706 83.5617 29.0271 83.4691C28.9374 83.4109 28.8479 83.3523 28.7569 83.296C28.6437 83.2259 28.529 83.1585 28.4142 83.0909C28.2931 83.0196 28.1722 82.9476 28.049 82.8794C27.9771 82.8395 27.9037 82.8023 27.8313 82.7633C26.8056 82.2132 25.7194 81.7695 24.5852 81.4465C24.5758 81.4438 24.5664 81.4407 24.5567 81.438C24.349 81.3792 24.1395 81.3258 23.9288 81.2752C23.8828 81.2643 23.8367 81.2527 23.7904 81.242C23.6026 81.1987 23.4136 81.1591 23.2238 81.1226C23.149 81.1079 23.0742 81.0942 22.9991 81.0808C22.8295 81.0506 22.6593 81.0223 22.488 80.9973C22.3841 80.9821 22.2797 80.9693 22.1752 80.9559C22.0271 80.9373 21.8789 80.9184 21.7296 80.9041C21.5843 80.8897 21.4382 80.8797 21.2924 80.8693C21.1777 80.8614 21.0638 80.851 20.9488 80.8452C20.6818 80.8318 20.4146 80.8242 20.1464 80.8242C17.475 80.8242 14.8154 81.4919 12.4551 82.7551C11.3748 83.3331 10.9503 84.7115 11.5071 85.8338C12.0634 86.9562 13.3907 87.3963 14.4713 86.8185C16.2357 85.8741 18.1452 85.3953 20.1467 85.3953C20.3447 85.3953 20.5413 85.4014 20.737 85.4109C20.8209 85.4151 20.9045 85.4224 20.9881 85.4282C21.0955 85.4359 21.2029 85.4435 21.3094 85.4538C21.4191 85.4645 21.5286 85.4779 21.638 85.4919C21.7134 85.5014 21.7888 85.5111 21.8639 85.5218C21.9913 85.5404 22.1183 85.5608 22.245 85.5837C22.2958 85.5928 22.3466 85.6022 22.397 85.612C22.5414 85.6397 22.6851 85.6693 22.8283 85.7022C22.8515 85.7074 22.8744 85.7135 22.8973 85.7187C23.9148 85.9597 24.8994 86.3342 25.828 86.8316C25.8617 86.8499 25.896 86.8672 25.9298 86.8858C26.0439 86.9483 26.1563 87.0138 26.2687 87.0802C26.3285 87.1156 26.3887 87.1509 26.4479 87.1875C26.54 87.2439 26.6313 87.3024 26.7222 87.3615C26.802 87.4136 26.8816 87.4663 26.9602 87.52C27.0324 87.5693 27.1042 87.6196 27.1755 87.6705C27.2741 87.7412 27.3715 87.8131 27.4678 87.8866C27.5197 87.9259 27.5713 87.9652 27.6227 88.0054C27.7412 88.0987 27.8577 88.1941 27.9727 88.2913C28.002 88.3163 28.032 88.3403 28.0613 88.3656C28.1546 88.4461 28.2453 88.5299 28.3362 88.6131C28.4289 88.6978 28.5202 88.7837 28.6102 88.8709C28.6812 88.9398 28.7519 89.0092 28.8215 89.0799C28.901 89.1607 28.9787 89.243 29.0559 89.3256C29.1287 89.4036 29.2017 89.4816 29.2727 89.5617C29.3428 89.6407 29.4103 89.7217 29.4784 89.8022C29.5503 89.8875 29.623 89.9722 29.6929 90.0594C29.7577 90.1404 29.8193 90.2233 29.8818 90.3059C29.9496 90.3949 30.0188 90.4824 30.0842 90.5732C30.2007 90.735 30.3134 90.8992 30.4225 91.0659C30.4709 91.1397 30.5158 91.2159 30.5628 91.2908C30.6361 91.4085 30.7101 91.5258 30.7796 91.6459C30.8201 91.7153 30.8576 91.7869 30.8969 91.8573C30.9653 91.9805 31.0337 92.1039 31.0982 92.2294C31.1325 92.2962 31.1648 92.3641 31.198 92.4318C31.2634 92.5649 31.3279 92.6987 31.389 92.834C31.4171 92.8965 31.4441 92.9599 31.4711 93.0227C31.5333 93.1665 31.5935 93.3116 31.6507 93.4575C31.6733 93.5154 31.695 93.5733 31.717 93.6315C31.7745 93.7854 31.8294 93.9406 31.8813 94.0969C31.8992 94.1508 31.9171 94.2048 31.9341 94.259C31.9854 94.4211 32.0336 94.5848 32.0787 94.749C32.0928 94.8002 32.1075 94.8514 32.121 94.9029C32.165 95.0711 32.2052 95.2409 32.2427 95.4112C32.2539 95.4615 32.2656 95.5112 32.2762 95.5618C32.312 95.7339 32.3431 95.9073 32.3721 96.081C32.3806 96.1316 32.3903 96.1816 32.3982 96.2322C32.4252 96.4059 32.4469 96.5805 32.4672 96.7557C32.4734 96.8082 32.481 96.86 32.4866 96.9124C32.5047 97.0888 32.5171 97.2662 32.5285 97.4438C32.5317 97.4956 32.5373 97.5469 32.54 97.5987C32.5517 97.8269 32.5579 98.0561 32.5579 98.2858V98.2968C30.4463 97.5045 28.6217 96.0116 27.3624 93.9966C26.9901 93.4009 26.3725 93.0187 25.691 92.9623C25.0091 92.9063 24.3413 93.182 23.8831 93.7096C20.9946 97.0343 16.8701 98.941 12.5671 98.941C10.9095 98.941 9.29111 98.6677 7.73876 98.1274C7.73905 98.0972 7.73993 98.0673 7.74052 98.0372C7.74463 97.8193 7.75255 97.6017 7.76722 97.385C7.7681 97.3728 7.76839 97.361 7.76927 97.3488C7.78658 97.1025 7.81093 96.8569 7.84174 96.6122C7.8435 96.5985 7.84526 96.5848 7.84702 96.5711C8.04272 95.0553 8.49484 93.5813 9.18431 92.2367C9.75526 91.1226 9.3492 89.7385 8.27626 89.1452C7.2039 88.5521 5.87072 88.9739 5.29948 90.0883C4.83944 90.9855 4.46067 91.9262 4.15935 92.8935C4.14292 92.9373 4.12561 92.9806 4.11182 93.0263C3.80258 94.0439 3.58694 95.0882 3.46225 96.1484C3.46195 96.1505 3.46166 96.1527 3.46136 96.1548C3.42264 96.4842 3.39388 96.8155 3.37305 97.1476C3.36953 97.2016 3.36719 97.2555 3.36425 97.3098C3.34694 97.6343 3.33521 97.9595 3.33521 98.2861V99.6892V105.603C3.33374 115.232 10.8754 123.066 20.1458 123.066ZM7.73465 102.884C9.30519 103.299 10.92 103.513 12.566 103.513C17.2456 103.513 21.7612 101.764 25.2934 98.6442C27.2524 100.823 29.7674 102.357 32.557 103.067V105.604C32.557 112.712 26.9892 118.495 20.1458 118.495C13.3024 118.495 7.73465 112.712 7.73465 105.604V102.884Z" fill="#9B7B55"/>
<path d="M49.7299 75.2023C50.9454 75.2023 51.9303 74.1789 51.9303 72.9167V59.0242C51.9303 52.9534 56.6851 48.0145 62.5298 48.0145H63.206L59.8112 60.0002C59.5864 60.7932 59.7918 61.6504 60.3478 62.2419L66.1009 68.3623C66.5149 68.8027 67.0826 69.0511 67.6753 69.0511C68.2679 69.0511 68.8357 68.8027 69.2496 68.3623L75.0028 62.2419C75.5591 61.6504 75.7642 60.7932 75.5394 60.0002L72.1446 48.0145H72.8208C78.6655 48.0145 83.4203 52.9534 83.4203 59.0242V72.9167C83.4203 74.1789 84.4052 75.2023 85.6207 75.2023C86.8362 75.2023 87.8212 74.1789 87.8212 72.9167V59.0242C87.8212 50.4329 81.0919 43.4434 72.8208 43.4434H69.2036H66.147H62.5298C54.2587 43.4434 47.5294 50.4329 47.5294 59.0242V72.9167C47.5294 74.1789 48.5143 75.2023 49.7299 75.2023ZM67.6753 63.4938L64.3966 60.006L67.6753 48.4314L70.954 60.0063L67.6753 63.4938Z" fill="#9B7B55"/>
<path d="M67.6752 42.2413C76.9456 42.2413 84.4873 34.4076 84.4873 24.7791V20.3268V17.4619C84.4873 17.1508 84.4788 16.8415 84.4632 16.5343C84.4597 16.4645 84.4524 16.3956 84.448 16.3262C84.433 16.0863 84.416 15.8468 84.3919 15.6097C84.3846 15.5372 84.3738 15.4653 84.3652 15.3927C84.3386 15.1584 84.3095 14.925 84.2737 14.6937C84.2626 14.6221 84.2488 14.5514 84.2367 14.48C84.1983 14.2494 84.1572 14.0196 84.1103 13.7919C84.095 13.7182 84.0774 13.6451 84.0613 13.5713C84.0123 13.3492 83.9607 13.1279 83.9037 12.9088C83.8829 12.829 83.8603 12.75 83.8383 12.6705C83.7808 12.4614 83.7207 12.2536 83.6558 12.0479C83.6279 11.9592 83.5986 11.8715 83.5696 11.7834C83.5059 11.5914 83.4393 11.4006 83.3695 11.2117C83.3328 11.1124 83.295 11.0133 83.2565 10.9146C83.1893 10.7427 83.1195 10.5727 83.0473 10.4035C82.9998 10.2917 82.9517 10.1802 82.9015 10.0692C82.8343 9.92021 82.7639 9.77333 82.6929 9.62644C82.6319 9.50059 82.5709 9.37442 82.5069 9.25009C82.4438 9.12789 82.3778 9.00752 82.3121 8.88714C82.2343 8.74422 82.1575 8.6013 82.0759 8.46081C82.0263 8.37549 81.9735 8.29229 81.9225 8.20757C81.4119 7.361 80.8307 6.55771 80.1818 5.80683C80.1542 5.77514 80.1278 5.74222 80.1002 5.71053C79.962 5.55298 79.8188 5.39939 79.6745 5.24672C79.6181 5.18699 79.5627 5.12695 79.5058 5.06814C79.3734 4.93222 79.2379 4.79936 79.1012 4.6674C79.0258 4.59457 78.9501 4.52235 78.8735 4.45104C78.8095 4.39161 78.7488 4.32914 78.684 4.27063C78.6614 4.24869 78.6382 4.22736 78.6147 4.20633C78.5387 4.13868 78.4598 4.07529 78.3827 4.00916C78.3671 3.99576 78.3513 3.98265 78.3357 3.96924C78.1541 3.81444 77.9696 3.66359 77.7824 3.51731C77.7445 3.48775 77.7064 3.45819 77.6682 3.42894C77.5045 3.30308 77.3385 3.18058 77.1707 3.06112C77.109 3.01693 77.0471 2.97305 76.9846 2.92977C76.8423 2.83134 76.6986 2.73596 76.5536 2.6424C76.465 2.58511 76.377 2.52752 76.2875 2.47175C76.1728 2.40074 76.0566 2.33248 75.9404 2.26422C75.8204 2.19352 75.701 2.12282 75.5793 2.05517C75.5053 2.01433 75.4305 1.97594 75.356 1.93632C74.3315 1.38718 73.2471 0.94439 72.1143 0.62167C72.1049 0.618928 72.0955 0.61588 72.0858 0.613138C71.8781 0.554323 71.6686 0.500993 71.458 0.450406C71.4119 0.439436 71.3658 0.427856 71.3195 0.41719C71.1317 0.373916 70.9428 0.3343 70.7529 0.297731C70.6781 0.283104 70.6033 0.26939 70.5282 0.255982C70.3586 0.225813 70.1885 0.197472 70.0171 0.172483C69.9133 0.157246 69.8088 0.144447 69.7044 0.131038C69.5562 0.112449 69.408 0.0935553 69.2587 0.0792325C69.1135 0.0649097 68.9674 0.0548533 68.8215 0.0444921C68.7068 0.0365688 68.593 0.0262077 68.478 0.0204176C68.211 0.00792325 67.9434 0 67.6752 0C65.0042 0 62.3443 0.667686 59.9839 1.93084C58.9036 2.50893 58.4791 3.88727 59.036 5.00932C59.5925 6.13168 60.9187 6.57234 62.0001 5.99424C63.7643 5.04985 65.674 4.57111 67.6752 4.57111C67.8733 4.57111 68.0699 4.5772 68.2656 4.58665C68.3492 4.59091 68.4328 4.59792 68.5161 4.60402C68.6238 4.61164 68.7312 4.61926 68.8383 4.62962C68.948 4.64028 69.0574 4.65369 69.1666 4.6674C69.242 4.67685 69.3174 4.6866 69.3925 4.69727C69.5198 4.71586 69.6466 4.73628 69.773 4.75883C69.8241 4.76797 69.8751 4.77742 69.9259 4.78717C70.0699 4.8149 70.2134 4.84415 70.3563 4.87707C70.3797 4.88255 70.4029 4.88834 70.4264 4.89383C71.4421 5.13457 72.425 5.50818 73.3518 6.004C73.3879 6.0235 73.4243 6.04209 73.4601 6.06159C73.5722 6.12315 73.6831 6.18775 73.7934 6.25266C73.8553 6.28923 73.9175 6.3258 73.9788 6.36359C74.0689 6.41875 74.1581 6.47604 74.247 6.53363C74.3294 6.58727 74.4116 6.64182 74.4925 6.69728C74.5621 6.74482 74.631 6.79297 74.6997 6.84203C74.8018 6.91517 74.9027 6.98983 75.0028 7.06602C75.0509 7.10258 75.0993 7.13915 75.1468 7.17664C75.27 7.27354 75.3912 7.37258 75.5106 7.47376C75.5353 7.49479 75.5605 7.5152 75.5851 7.53654C75.6823 7.62003 75.7764 7.70719 75.8709 7.79374C75.9592 7.87449 76.0467 7.95647 76.1323 8.03966C76.2066 8.11189 76.2805 8.18441 76.353 8.25816C76.4292 8.33587 76.5038 8.4148 76.578 8.49403C76.6534 8.57479 76.7288 8.65554 76.8021 8.73813C76.8693 8.81401 76.9345 8.89172 76.9999 8.96912C77.0744 9.05719 77.1495 9.14465 77.2217 9.23516C77.283 9.31195 77.3414 9.39058 77.401 9.46859C77.472 9.56153 77.5441 9.65326 77.6128 9.74834C77.7102 9.88334 77.8032 10.0211 77.895 10.1597C77.9634 10.2627 78.0294 10.3676 78.0951 10.4727C78.1667 10.5876 78.2389 10.7022 78.307 10.8192C78.348 10.8899 78.3865 10.9627 78.4261 11.0343C78.4939 11.1565 78.5616 11.2787 78.6256 11.4031C78.6602 11.4704 78.6928 11.5393 78.7265 11.6073C78.7916 11.7398 78.8559 11.873 78.9166 12.0077C78.9451 12.0705 78.9721 12.1342 78.9994 12.1975C79.0613 12.3411 79.1214 12.4855 79.1783 12.6315C79.2009 12.6897 79.2229 12.7479 79.2449 12.8064C79.3024 12.9603 79.357 13.1151 79.409 13.2711C79.4268 13.3251 79.4447 13.3793 79.4621 13.4336C79.5134 13.5957 79.5615 13.759 79.6067 13.9236C79.6208 13.9748 79.6355 14.026 79.6489 14.0778C79.693 14.246 79.7332 14.4157 79.7707 14.5861C79.7819 14.6364 79.7936 14.686 79.8041 14.7366C79.8399 14.9088 79.871 15.0819 79.9001 15.2559C79.9086 15.3065 79.9183 15.3565 79.9262 15.4071C79.9532 15.5808 79.9749 15.7554 79.9951 15.9306C80.0013 15.983 80.0089 16.0348 80.0145 16.0872C80.0327 16.2637 80.045 16.441 80.0565 16.6187C80.0597 16.6705 80.0653 16.7217 80.0679 16.7735C80.0797 17.0018 80.0858 17.2309 80.0858 17.4607V17.4717C77.9742 16.6791 76.1496 15.1864 74.8904 13.1715C74.5181 12.5757 73.9005 12.1936 73.2189 12.1372C72.5406 12.0814 71.8693 12.3569 71.4113 12.8844C68.5223 16.2091 64.398 18.1159 60.0951 18.1159C58.4374 18.1159 56.8191 17.8426 55.2667 17.3019C55.267 17.2718 55.2679 17.2416 55.2685 17.2114C55.2726 16.9945 55.2805 16.7778 55.2949 16.5614C55.2958 16.5483 55.2961 16.5355 55.297 16.5224C55.3143 16.2771 55.3386 16.033 55.3691 15.7895C55.3712 15.774 55.3732 15.7584 55.3753 15.7426C55.571 14.2277 56.0231 12.7549 56.712 11.4116C57.2829 10.2975 56.8769 8.91335 55.8039 8.32002C54.7316 7.72669 53.399 8.14906 52.8272 9.26289C52.3662 10.1622 51.9866 11.1047 51.6847 12.0741C51.6691 12.1165 51.6524 12.1576 51.6392 12.2015C51.3309 13.2172 51.1155 14.2591 50.9905 15.3163C50.9899 15.3217 50.989 15.3272 50.9885 15.3324C50.95 15.6606 50.9213 15.9903 50.9004 16.321C50.8969 16.3758 50.8943 16.4304 50.8914 16.4852C50.874 16.8095 50.8623 17.1343 50.8623 17.4604V18.8634V24.7775C50.8632 34.4079 58.4049 42.2413 67.6752 42.2413ZM55.2641 22.0602C56.8346 22.4749 58.4495 22.6885 60.0954 22.6885C64.775 22.6885 69.2907 20.9393 72.8228 17.82C74.7818 19.9986 77.2968 21.5327 80.0864 22.2427V24.7794C80.0864 31.8874 74.5187 37.6705 67.6752 37.6705C60.8318 37.6705 55.2641 31.8874 55.2641 24.7794V22.0602Z" fill="#9B7B55"/>
<path d="M100.766 79.4001C101.199 79.9928 101.856 80.3049 102.521 80.3049C102.984 80.3049 103.451 80.1534 103.848 79.8405C104.817 79.078 105.007 77.6442 104.272 76.6383C101.585 72.9565 98.4047 69.7028 94.8206 66.9681C93.8413 66.2209 92.4641 66.4397 91.7447 67.4569C91.025 68.4741 91.2359 69.9049 92.2153 70.6521C95.4576 73.1262 98.3346 76.0694 100.766 79.4001Z" fill="#9B7B55"/>
<path d="M87.4535 143.313C81.4234 146.715 74.5844 148.514 67.6752 148.514C60.7165 148.514 53.8338 146.691 47.7711 143.242C46.7052 142.636 45.3679 143.041 44.7841 144.148C44.2002 145.256 44.5913 146.645 45.6572 147.251C52.366 151.068 59.9795 153.085 67.6752 153.085C75.3158 153.085 82.8815 151.095 89.5542 147.33C90.6222 146.727 91.0174 145.339 90.4376 144.23C89.857 143.121 88.522 142.71 87.4535 143.313Z" fill="#9B7B55"/>
<path d="M40.5293 66.9679C36.9743 69.6807 33.8165 72.904 31.1437 76.5487C30.4069 77.5528 30.5938 78.9869 31.5606 79.7518C31.9587 80.0669 32.4275 80.2193 32.8923 80.2193C33.5556 80.2193 34.2114 79.9087 34.6444 79.3185C37.0623 76.0215 39.9193 73.1054 43.1349 70.6516C44.1143 69.9041 44.3252 68.4739 43.6055 67.4564C42.8858 66.4398 41.5089 66.221 40.5293 66.9679Z" fill="#9B7B55"/>
<path d="M120.35 124.269H116.733H113.676H110.059C101.788 124.269 95.0588 131.258 95.0588 139.849V153.742C95.0588 155.004 96.0438 156.027 97.2593 156.027C98.4748 156.027 99.4597 155.004 99.4597 153.742V139.849C99.4597 133.779 104.215 128.84 110.059 128.84H110.735L107.341 140.825C107.116 141.618 107.321 142.476 107.877 143.067L113.63 149.187C114.044 149.628 114.612 149.876 115.205 149.876C115.797 149.876 116.365 149.628 116.779 149.187L122.532 143.067C123.088 142.476 123.294 141.618 123.069 140.825L119.674 128.84H120.35C126.195 128.84 130.95 133.779 130.95 139.849V153.742C130.95 155.004 131.935 156.027 133.15 156.027C134.366 156.027 135.351 155.004 135.351 153.742V139.849C135.351 131.258 128.622 124.269 120.35 124.269ZM115.205 144.319L111.926 140.831L115.205 129.256L118.483 140.831L115.205 144.319Z" fill="#9B7B55"/>
<path d="M109.529 86.8186C111.294 85.8742 113.203 85.3955 115.205 85.3955C115.403 85.3955 115.599 85.4016 115.795 85.411C115.879 85.4153 115.963 85.4226 116.047 85.4284C116.154 85.436 116.261 85.4436 116.368 85.4537C116.478 85.4644 116.587 85.4778 116.697 85.4918C116.772 85.5012 116.847 85.511 116.922 85.5217C117.05 85.5403 117.177 85.5607 117.304 85.5835C117.355 85.5927 117.405 85.6021 117.456 85.6119C117.6 85.6396 117.744 85.6692 117.887 85.7021C117.91 85.7075 117.934 85.7136 117.958 85.7191C118.975 85.9605 119.96 86.3353 120.889 86.833C120.922 86.8509 120.956 86.8683 120.99 86.8866C121.104 86.9491 121.216 87.0149 121.329 87.0813C121.389 87.1167 121.448 87.1517 121.507 87.1883C121.599 87.2447 121.691 87.3032 121.781 87.3623C121.861 87.4144 121.941 87.4671 122.02 87.5211C122.092 87.5701 122.163 87.6204 122.234 87.671C122.333 87.7417 122.43 87.8136 122.527 87.8871C122.579 87.9264 122.63 87.9657 122.682 88.0059C122.799 88.0985 122.916 88.1933 123.03 88.2902C123.06 88.3155 123.091 88.3405 123.12 88.3664C123.217 88.4493 123.31 88.5355 123.404 88.6215C123.491 88.7007 123.576 88.7812 123.661 88.8628C123.737 88.9363 123.812 89.0103 123.886 89.0859C123.96 89.1618 124.033 89.2389 124.106 89.3166C124.183 89.3989 124.26 89.4811 124.334 89.5659C124.4 89.6396 124.463 89.7155 124.527 89.7908C124.603 89.8807 124.68 89.9703 124.753 90.0623C124.812 90.1357 124.868 90.2116 124.925 90.2863C124.999 90.3823 125.074 90.4773 125.144 90.5755C125.223 90.6846 125.297 90.7964 125.372 90.9076C125.461 91.0387 125.546 91.1718 125.63 91.3062C125.7 91.4184 125.77 91.5299 125.837 91.6442C125.879 91.7164 125.918 91.7905 125.958 91.8636C126.026 91.9843 126.093 92.1053 126.156 92.2281C126.191 92.2963 126.224 92.3658 126.258 92.435C126.323 92.5666 126.386 92.6992 126.447 92.833C126.475 92.8964 126.503 92.9607 126.53 93.0247C126.592 93.1676 126.652 93.3114 126.708 93.4565C126.731 93.5153 126.754 93.5741 126.776 93.6335C126.833 93.7868 126.887 93.941 126.939 94.0964C126.957 94.151 126.975 94.2055 126.992 94.2604C127.043 94.4222 127.091 94.5855 127.136 94.7498C127.15 94.8013 127.165 94.8522 127.179 94.904C127.223 95.0722 127.263 95.242 127.3 95.4123C127.312 95.4626 127.323 95.5123 127.334 95.5628C127.37 95.735 127.401 95.9081 127.43 96.0821C127.438 96.1327 127.448 96.1827 127.456 96.2336C127.483 96.4067 127.505 96.581 127.525 96.7556C127.531 96.8086 127.539 96.861 127.544 96.9144C127.562 97.0905 127.574 97.2676 127.586 97.4446C127.589 97.4967 127.594 97.5479 127.597 97.6C127.609 97.8283 127.615 98.0574 127.615 98.2872V98.2982C125.504 97.5059 123.679 96.0129 122.42 93.998C122.048 93.4022 121.43 93.0201 120.749 92.9637C120.07 92.9076 119.399 93.1834 118.941 93.7109C116.052 97.0357 111.927 98.9424 107.625 98.9424C105.967 98.9424 104.349 98.6691 102.796 98.1288C102.797 98.0986 102.797 98.0684 102.798 98.0382C102.802 97.821 102.81 97.604 102.825 97.3876C102.826 97.3748 102.826 97.362 102.827 97.3495C102.844 97.1042 102.868 96.8595 102.899 96.6157C102.901 96.6005 102.903 96.5856 102.905 96.5703C103.1 95.0551 103.553 93.582 104.241 92.2381C104.812 91.124 104.406 89.7399 103.333 89.1465C102.261 88.5535 100.928 88.9753 100.357 90.0897C99.896 90.9881 99.5167 91.9297 99.2154 92.8982C99.1995 92.9412 99.1825 92.9835 99.169 93.028C98.8606 94.044 98.645 95.0862 98.5203 96.144C98.5197 96.1489 98.5188 96.1537 98.5182 96.1589C98.4798 96.4871 98.4511 96.8172 98.4302 97.1481C98.4267 97.2026 98.4241 97.2575 98.4211 97.3121C98.4038 97.6363 98.3921 97.9611 98.3921 98.2872V99.6902V105.604C98.3921 115.233 105.934 123.067 115.204 123.067C124.474 123.067 132.016 115.233 132.016 105.604V101.152V98.2872C132.016 97.9761 132.008 97.6668 131.992 97.3596C131.989 97.2895 131.981 97.22 131.977 97.1502C131.962 96.9107 131.945 96.6718 131.921 96.435C131.913 96.3616 131.902 96.2887 131.894 96.2153C131.867 95.9822 131.838 95.7496 131.803 95.5196C131.791 95.4458 131.777 95.373 131.765 95.2996C131.727 95.0713 131.686 94.844 131.64 94.6188C131.624 94.542 131.606 94.4661 131.589 94.3896C131.54 94.1705 131.489 93.9526 131.433 93.7365C131.412 93.6533 131.388 93.5711 131.365 93.4882C131.309 93.2828 131.249 93.0783 131.186 92.876C131.157 92.7842 131.127 92.6931 131.096 92.602C131.034 92.4134 130.968 92.2262 130.9 92.0404C130.862 91.9377 130.823 91.8356 130.783 91.7335C130.717 91.5656 130.649 91.3989 130.578 91.2337C130.529 91.1182 130.479 91.003 130.428 90.8884C130.362 90.7437 130.294 90.6008 130.225 90.4581C130.162 90.3283 130.099 90.1985 130.033 90.0702C129.973 89.9532 129.909 89.838 129.846 89.7225C129.766 89.5747 129.686 89.4266 129.602 89.2812C129.556 89.2035 129.508 89.1277 129.462 89.0509C128.948 88.1973 128.363 87.3876 127.709 86.6312C127.682 86.5998 127.656 86.5675 127.628 86.5364C127.49 86.3783 127.346 86.2244 127.201 86.0714C127.145 86.012 127.09 85.952 127.033 85.8934C126.901 85.7575 126.765 85.6244 126.628 85.4924C126.553 85.4193 126.477 85.3467 126.399 85.2751C126.335 85.2151 126.274 85.1523 126.208 85.0932C126.187 85.0728 126.165 85.0524 126.142 85.0326C126.067 84.9658 125.989 84.903 125.913 84.8375C125.895 84.8223 125.877 84.807 125.86 84.7918C125.68 84.6388 125.498 84.4898 125.313 84.3451C125.273 84.314 125.233 84.2832 125.193 84.2524C125.031 84.1278 124.867 84.0068 124.701 83.8886C124.638 83.8435 124.574 83.7984 124.511 83.7539C124.37 83.6567 124.228 83.5622 124.084 83.4695C123.994 83.4113 123.905 83.3528 123.814 83.2965C123.701 83.2264 123.586 83.159 123.471 83.0914C123.35 83.0201 123.229 82.9481 123.106 82.8799C123.034 82.8399 122.961 82.8028 122.888 82.7638C121.863 82.2137 120.777 81.77 119.642 81.447C119.633 81.4442 119.623 81.4412 119.614 81.4384C119.406 81.3796 119.197 81.3263 118.986 81.2757C118.94 81.2647 118.894 81.2532 118.847 81.2425C118.66 81.1992 118.471 81.1596 118.281 81.123C118.206 81.1084 118.131 81.0947 118.056 81.0813C117.886 81.0511 117.716 81.0228 117.545 80.9978C117.441 80.9826 117.337 80.9698 117.232 80.9563C117.084 80.9378 116.936 80.9189 116.787 80.9045C116.641 80.8902 116.495 80.8802 116.35 80.8698C116.235 80.8619 116.121 80.8515 116.006 80.8457C115.739 80.8323 115.472 80.8247 115.204 80.8247C112.532 80.8247 109.873 81.4924 107.512 82.7555C106.432 83.3336 106.007 84.712 106.564 85.834C107.121 86.9561 108.448 87.3967 109.529 86.8186ZM115.205 118.494C108.361 118.494 102.794 112.711 102.794 105.603V102.884C104.364 103.299 105.979 103.512 107.625 103.512C112.304 103.512 116.82 101.763 120.353 98.6438C122.311 100.822 124.826 102.356 127.616 103.066V105.603C127.616 112.711 122.048 118.494 115.205 118.494Z" fill="#9B7B55"/>
<path d="M46.5806 114.032L49.9408 120.078C50.4419 120.979 51.465 121.415 52.4329 121.138L57.787 119.6C58.7291 120.311 59.7337 120.915 60.7911 121.407L62.185 126.986C62.4367 127.994 63.3125 128.697 64.3151 128.697H71.0355C72.0381 128.697 72.9136 127.994 73.1656 126.986L74.5595 121.407C75.6169 120.915 76.6215 120.311 77.5636 119.6L82.9177 121.138C83.8853 121.415 84.9087 120.979 85.4098 120.078L88.77 114.032C89.2711 113.13 89.1224 111.991 88.408 111.26L84.4478 107.212C84.5085 106.609 84.5393 106.006 84.5393 105.412C84.5393 104.818 84.5088 104.216 84.4478 103.612L88.408 99.5639C89.1227 98.8338 89.2711 97.694 88.77 96.7923L85.4098 90.7469C84.9087 89.8454 83.8853 89.4093 82.9177 89.6867L77.5636 91.2241C76.6215 90.5134 75.6169 89.9097 74.5595 89.4179L73.1656 83.8384C72.9138 82.8306 72.0381 82.127 71.0355 82.127H64.3151C63.3125 82.127 62.437 82.8306 62.185 83.8384L60.7911 89.4179C59.7337 89.9094 58.7291 90.5134 57.787 91.2241L52.4329 89.6867C51.465 89.4093 50.4419 89.8454 49.9408 90.7469L46.5806 96.7923C46.0794 97.694 46.2282 98.8338 46.9426 99.5639L50.9028 103.612C50.8421 104.216 50.8113 104.818 50.8113 105.412C50.8113 106.007 50.8418 106.609 50.9028 107.212L46.9426 111.26C46.2279 111.991 46.0794 113.13 46.5806 114.032ZM55.4014 107.645C55.2759 106.896 55.2122 106.144 55.2122 105.412C55.2122 104.681 55.2759 103.929 55.4014 103.18C55.525 102.441 55.2917 101.686 54.7768 101.16L51.2429 97.5468L52.9006 94.564L57.6797 95.9366C58.3768 96.1365 59.1246 95.9683 59.6791 95.4856C60.7949 94.5147 62.0459 93.7626 63.3985 93.2497C64.0777 92.9919 64.5917 92.404 64.7736 91.6769L66.0173 86.6987H69.333L70.5767 91.6769C70.7583 92.404 71.2723 92.9919 71.9518 93.2497C73.3041 93.7626 74.5554 94.515 75.6712 95.4856C76.226 95.9683 76.9732 96.1362 77.6706 95.9366L82.4497 94.564L84.1074 97.5468L80.5735 101.16C80.0586 101.686 79.8253 102.441 79.9488 103.18C80.0744 103.929 80.1381 104.681 80.1381 105.412C80.1381 106.144 80.0744 106.895 79.9488 107.645C79.8253 108.384 80.0586 109.139 80.5735 109.665L84.1074 113.278L82.4497 116.261L77.6706 114.888C76.9735 114.688 76.2257 114.856 75.6712 115.339C74.5554 116.31 73.3043 117.062 71.9518 117.575C71.2726 117.833 70.7586 118.421 70.5767 119.148L69.333 124.126H66.0176L64.7739 119.148C64.5923 118.421 64.0783 117.833 63.3988 117.575C62.0465 117.062 60.7952 116.31 59.6794 115.339C59.1243 114.856 58.3768 114.688 57.6799 114.888L52.9009 116.261L51.2432 113.278L54.7771 109.665C55.2917 109.139 55.525 108.384 55.4014 107.645Z" fill="#9B7B55"/>
<path d="M67.6754 113.467C71.9513 113.467 75.4301 109.854 75.4301 105.412C75.4301 104.15 74.4451 103.126 73.2296 103.126C72.0141 103.126 71.0291 104.15 71.0291 105.412C71.0291 107.333 69.5246 108.896 67.6754 108.896C65.8261 108.896 64.3216 107.333 64.3216 105.412C64.3216 103.491 65.8261 101.929 67.6754 101.929C68.8909 101.929 69.8758 100.905 69.8758 99.643C69.8758 98.3807 68.8909 97.3574 67.6754 97.3574C63.3994 97.3574 59.9207 100.971 59.9207 105.412C59.9207 109.854 63.3994 113.467 67.6754 113.467Z" fill="#9B7B55"/>
</svg>
